<svg width="166" height="112" viewBox="0 0 166 112" fill="none" xmlns="http://www.w3.org/2000/svg">
<path d="M62.8146 3.49996C48.4296 3.047 34.4529 8.32125 23.9533 18.1646C13.4537 28.0079 7.28965 41.6157 6.81457 56C7.28965 70.3842 13.4537 83.992 23.9533 93.8353C34.4529 103.679 48.4296 108.953 62.8146 108.5C77.1995 108.953 91.1763 103.679 101.676 93.8353C112.175 83.992 118.339 70.3842 118.815 56C118.339 41.6157 112.175 28.0079 101.676 18.1646C91.1763 8.32125 77.1995 3.047 62.8146 3.49996ZM109.785 51.1L101.175 49C99.4246 48.51 99.2846 48.37 99.1446 48.16C98.0946 46.76 96.9046 44.87 95.7846 43.05C95.7846 42.42 94.8746 41.44 94.6646 40.88C94.4546 40.32 97.1146 36.68 98.2346 35C99.4396 33.7422 100.833 32.6795 102.365 31.85C106.427 37.5356 108.98 44.1589 109.785 51.1ZM62.8146 12.25L62.1846 13.44C62.1253 13.2104 62.1253 12.9695 62.1846 12.74C62.1846 13.16 61.1346 13.79 60.4346 14.49L58.3346 16.52C57.3768 17.5184 56.797 18.8195 56.6948 20.1992C56.5926 21.579 56.9744 22.9513 57.7746 24.08H56.9346C55.8292 24.1119 54.7453 24.3929 53.7635 24.9019C52.7818 25.4109 51.9276 26.1349 51.2646 27.02C50.4907 28.0866 49.9636 29.312 49.7214 30.6074C49.4793 31.9028 49.5282 33.2358 49.8646 34.51V35C48.8436 35.182 47.8375 35.4393 46.8546 35.77L45.1746 36.33L40.6946 37.8C39.3597 38.191 38.1428 38.9073 37.1532 39.8848C36.1636 40.8622 35.4321 42.0701 35.0246 43.4C34.699 44.516 34.6565 45.6955 34.9009 46.8321C35.1453 47.9687 35.669 49.0264 36.4246 49.91C39.2305 52.9377 42.4893 55.5116 46.0846 57.54C49.6085 59.88 53.596 61.4319 57.7746 62.09H69.5346C70.9507 62.0223 72.3609 62.3142 73.6338 62.9384C74.9068 63.5627 76.001 64.4989 76.8146 65.66C77.1953 66.0528 77.4765 66.5309 77.6348 67.0545C77.7931 67.5782 77.8239 68.132 77.7246 68.67C77.5769 69.5592 77.2167 70.3997 76.6746 71.12C73.1866 73.9649 70.8285 77.9613 70.0246 82.39C69.1199 85.6809 67.9974 88.908 66.6646 92.05C65.8246 94.22 65.0546 96.32 64.4946 98C62.1463 98.1711 59.7857 97.9823 57.4946 97.44C58.0524 92.239 56.8176 87.0035 53.9946 82.6C51.6404 79.8184 50.3286 76.3037 50.2846 72.66C50.737 69.2034 49.9521 65.6982 48.069 62.7645C46.1858 59.8309 43.3256 57.6579 39.9946 56.63C32.1568 51.7604 25.2768 45.4972 19.6946 38.15C23.7398 30.2316 29.9251 23.6068 37.5476 19.0284C45.1701 14.4499 53.924 12.1015 62.8146 12.25ZM15.5646 56C15.5612 53.2714 15.8427 50.55 16.4046 47.88C22.1521 54.7566 29.1313 60.5015 36.9846 64.82C41.1846 66.36 41.8146 67.97 41.8146 72.66C41.8301 78.511 43.9693 84.1574 47.8346 88.55C48.8669 91.5864 49.2018 94.8163 48.8146 98C39.4593 95.5668 31.1521 90.1503 25.1521 82.5713C19.152 74.9923 15.7861 65.664 15.5646 56ZM73.8046 98.56C73.8046 97.51 74.6446 96.32 75.0646 95.2C76.662 91.5821 77.9499 87.8354 78.9146 84C79.4628 81.6258 80.7943 79.5052 82.6946 77.98C85.1503 75.576 86.5802 72.3149 86.6846 68.88C86.7745 67.2518 86.5289 65.6225 85.963 64.0932C85.397 62.564 84.5228 61.1673 83.3946 59.99C81.7109 57.9244 79.569 56.2795 77.1389 55.1859C74.7087 54.0924 72.0572 53.5802 69.3946 53.69H58.2646C53.04 52.266 48.2369 49.6003 44.2646 45.92L47.5546 44.8L49.4446 44.24C50.2779 43.8617 51.1912 43.6935 52.1046 43.75L52.7346 44.8C53.2584 45.7824 54.1294 46.5345 55.1776 46.9098C56.2258 47.2851 57.3762 47.2566 58.4046 46.83C59.4226 46.355 60.229 45.5202 60.6684 44.4863C61.1078 43.4524 61.1492 42.2925 60.7846 41.23V39.97C60.0146 37.87 59.1046 34.93 58.5446 32.97C60.3602 33.0461 62.162 32.6231 63.7541 31.7469C65.3462 30.8706 66.6675 29.5747 67.5746 28C68.0091 26.827 68.1215 25.5591 67.8999 24.328C67.6783 23.0969 67.1309 21.9477 66.3146 21C67.139 20.2613 67.9109 19.466 68.6246 18.62C69.2671 17.8511 69.7371 16.9533 70.0028 15.9872C70.2684 15.0211 70.3236 14.0092 70.1646 13.02C79.9488 14.4603 89.0591 18.8566 96.2746 25.62C94.1561 26.9136 92.2838 28.5726 90.7446 30.52C89.0743 32.9552 87.5772 35.5048 86.2646 38.15C85.6999 39.7817 85.5578 41.5298 85.8516 43.2313C86.1453 44.9328 86.8654 46.5321 87.9446 47.88C89.2046 50.05 90.6046 52.15 91.8646 53.9C93.6013 56.089 96.1021 57.5395 98.8646 57.96C100.405 58.38 105.865 59.5 109.715 60.27C108.477 69.6028 104.348 78.3139 97.9078 85.181C91.4675 92.0482 83.0389 96.7266 73.8046 98.56Z" fill="#69C292"/>
<path d="M112.84 112C112.59 112 112.406 111.93 112.289 111.789C112.18 111.648 112.125 111.391 112.125 111.016V110.852L112.137 110.676C112.145 110.543 112.203 110.297 112.312 109.938C112.43 109.578 112.57 109.168 112.734 108.707C112.906 108.246 113.074 107.793 113.238 107.348C113.41 106.895 113.555 106.516 113.672 106.211C113.141 106.711 112.543 107.211 111.879 107.711C111.215 108.211 110.531 108.629 109.828 108.965C109.125 109.301 108.453 109.469 107.812 109.469C107.094 109.469 106.5 109.297 106.031 108.953C105.562 108.609 105.215 108.172 104.988 107.641C104.77 107.109 104.66 106.566 104.66 106.012V105.859L104.672 105.719C104.734 104.727 104.934 103.703 105.27 102.648C105.613 101.594 106.059 100.555 106.605 99.5312C107.16 98.5 107.785 97.5391 108.48 96.6484C108.996 95.9844 109.547 95.375 110.133 94.8203C110.719 94.2578 111.32 93.7734 111.938 93.3672C112.555 92.9688 113.176 92.6562 113.801 92.4297C114.434 92.2031 115.059 92.0898 115.676 92.0898C116.387 92.0898 117.074 92.2539 117.738 92.582C118.402 92.9102 119.023 93.4414 119.602 94.1758C119.734 94.3398 119.816 94.5078 119.848 94.6797C119.887 94.8438 119.906 95 119.906 95.1484C119.906 95.5 119.805 95.7773 119.602 95.9805C119.406 96.1836 119.172 96.2852 118.898 96.2852C118.648 96.2852 118.414 96.1758 118.195 95.957C117.984 95.7305 117.746 95.4102 117.48 94.9961C117.23 94.6211 116.953 94.3516 116.648 94.1875C116.352 94.0156 116.027 93.9297 115.676 93.9297C115.137 93.9297 114.559 94.1172 113.941 94.4922C113.332 94.8594 112.715 95.3633 112.09 96.0039C111.473 96.6445 110.887 97.3672 110.332 98.1719C109.77 98.9922 109.27 99.8359 108.832 100.703C108.395 101.562 108.051 102.395 107.801 103.199C107.559 104.004 107.438 104.734 107.438 105.391C107.438 105.68 107.473 105.977 107.543 106.281C107.613 106.578 107.742 106.828 107.93 107.031C108.117 107.234 108.383 107.336 108.727 107.336C109.156 107.336 109.668 107.164 110.262 106.82C110.855 106.469 111.449 106.043 112.043 105.543C112.637 105.043 113.172 104.531 113.648 104.008C114.133 103.484 114.473 103.051 114.668 102.707L115.758 99.9531C115.891 99.6562 116.062 99.4453 116.273 99.3203C116.492 99.1953 116.715 99.1328 116.941 99.1328C117.168 99.1328 117.375 99.1953 117.562 99.3203C117.75 99.4453 117.844 99.6562 117.844 99.9531C117.844 100.695 117.703 101.371 117.422 101.98C117.148 102.582 116.871 103.223 116.59 103.902C116.551 103.957 116.465 104.16 116.332 104.512C116.199 104.855 116.043 105.277 115.863 105.777C115.684 106.27 115.504 106.77 115.324 107.277C114.941 108.34 114.656 109.156 114.469 109.727C114.289 110.297 114.184 110.613 114.152 110.676C114.066 110.957 113.895 111.246 113.637 111.543C113.387 111.848 113.121 112 112.84 112ZM120.949 109.293C120.324 109.293 119.789 109.141 119.344 108.836C118.906 108.523 118.57 108.117 118.336 107.617C118.109 107.109 117.996 106.566 117.996 105.988C117.996 105.48 118.141 104.914 118.43 104.289C118.727 103.656 119.148 103.051 119.695 102.473C120.242 101.895 120.895 101.418 121.652 101.043C122.418 100.66 123.25 100.469 124.148 100.469C124.797 100.469 125.281 100.625 125.602 100.938C125.922 101.25 126.082 101.684 126.082 102.238C126.082 102.566 125.996 102.91 125.824 103.27C125.652 103.629 125.355 103.992 124.934 104.359C124.512 104.734 123.945 105.117 123.234 105.508C122.531 105.891 121.648 106.277 120.586 106.668C120.672 107.152 121.062 107.395 121.758 107.395C122.297 107.395 122.879 107.285 123.504 107.066C124.129 106.84 124.73 106.582 125.309 106.293C125.887 106.012 126.383 105.746 126.797 105.496C127.211 105.246 127.457 105.105 127.535 105.074C127.605 105.027 127.668 105 127.723 104.992C127.785 104.984 127.84 104.98 127.887 104.98C128.074 104.98 128.203 105.055 128.273 105.203C128.352 105.344 128.391 105.461 128.391 105.555C128.391 105.625 128.383 105.711 128.367 105.812C128.352 105.906 128.293 106.016 128.191 106.141C128.09 106.242 127.793 106.465 127.301 106.809C126.809 107.152 126.281 107.484 125.719 107.805C125.031 108.188 124.266 108.531 123.422 108.836C122.578 109.141 121.754 109.293 120.949 109.293ZM120.41 105.32C120.918 105.055 121.434 104.746 121.957 104.395C122.488 104.035 122.891 103.773 123.164 103.609C123.531 103.375 123.773 103.168 123.891 102.988C124.023 102.793 124.09 102.629 124.09 102.496C124.09 102.379 124.051 102.285 123.973 102.215C123.902 102.145 123.82 102.102 123.727 102.086L123.621 102.074H123.516C123.086 102.074 122.688 102.199 122.32 102.449C121.961 102.691 121.656 102.996 121.406 103.363C121.141 103.746 120.926 104.105 120.762 104.441C120.605 104.777 120.488 105.07 120.41 105.32ZM128.848 109.293C128.535 109.293 128.18 109.207 127.781 109.035C127.391 108.871 127.051 108.605 126.762 108.238C126.473 107.871 126.328 107.387 126.328 106.785C126.328 106.301 126.441 105.707 126.668 105.004C126.902 104.301 127.258 103.605 127.734 102.918C128.219 102.223 128.84 101.645 129.598 101.184C130.355 100.715 131.234 100.48 132.234 100.48C132.633 100.48 133.055 100.555 133.5 100.703C133.953 100.852 134.34 101.102 134.66 101.453C134.98 101.797 135.141 102.273 135.141 102.883C135.141 103.383 135.016 103.965 134.766 104.629C134.906 104.801 135.105 104.887 135.363 104.887C135.605 104.887 135.887 104.789 136.207 104.594C136.527 104.398 136.844 104.16 137.156 103.879C137.477 103.598 137.766 103.316 138.023 103.035C138.289 102.754 138.496 102.527 138.645 102.355C138.699 102.301 138.766 102.273 138.844 102.273C139.016 102.273 139.141 102.383 139.219 102.602C139.297 102.82 139.281 103.098 139.172 103.434C139.062 103.762 138.809 104.102 138.41 104.453C138.176 104.703 137.887 105.012 137.543 105.379C137.207 105.738 136.84 106.059 136.441 106.34C136.051 106.613 135.652 106.75 135.246 106.75C134.832 106.75 134.441 106.617 134.074 106.352C133.496 107.258 132.762 107.977 131.871 108.508C130.98 109.031 129.973 109.293 128.848 109.293ZM129.867 107.242C130.359 107.242 130.82 107.078 131.25 106.75C131.68 106.422 132.027 106.008 132.293 105.508C132.559 105.008 132.691 104.496 132.691 103.973C132.691 103.77 132.668 103.559 132.621 103.34C132.582 103.113 132.488 102.926 132.34 102.777C132.191 102.621 131.953 102.543 131.625 102.543C131.141 102.543 130.684 102.699 130.254 103.012C129.824 103.316 129.473 103.715 129.199 104.207C128.934 104.691 128.801 105.199 128.801 105.73C128.801 105.926 128.824 106.145 128.871 106.387C128.918 106.621 129.016 106.824 129.164 106.996C129.32 107.16 129.555 107.242 129.867 107.242ZM139.406 109.457C138.453 109.457 137.785 109.203 137.402 108.695C137.02 108.188 136.828 107.582 136.828 106.879C136.828 106.48 136.879 106.07 136.98 105.648C137.082 105.219 137.215 104.805 137.379 104.406L137.953 103C138.016 102.852 138.082 102.691 138.152 102.52C138.223 102.34 138.312 102.129 138.422 101.887L141.844 94.2812C141.938 94.0703 142.109 93.8867 142.359 93.7305C142.617 93.5742 142.883 93.4961 143.156 93.4961C143.516 93.4961 143.766 93.5664 143.906 93.707C144.055 93.8477 144.129 94.0195 144.129 94.2227C144.129 94.3789 144.09 94.5508 144.012 94.7383C143.934 94.918 143.848 95.0859 143.754 95.2422C143.465 95.7969 143.184 96.3555 142.91 96.918C142.637 97.4805 142.371 98.0469 142.113 98.6172C141.855 99.1875 141.59 99.7578 141.316 100.328C141.043 100.898 140.762 101.461 140.473 102.016C140.965 101.625 141.523 101.27 142.148 100.949C142.773 100.629 143.426 100.469 144.105 100.469C144.426 100.469 144.746 100.551 145.066 100.715C145.395 100.879 145.668 101.117 145.887 101.43C146.113 101.742 146.227 102.129 146.227 102.59C146.227 102.73 146.18 102.984 146.086 103.352C145.992 103.719 145.867 104.109 145.711 104.523C145.562 104.93 145.391 105.277 145.195 105.566C145.25 105.652 145.32 105.707 145.406 105.73C145.492 105.746 145.59 105.754 145.699 105.754C146.168 105.754 146.629 105.68 147.082 105.531C147.543 105.375 147.965 105.195 148.348 104.992C148.738 104.789 149.062 104.609 149.32 104.453C149.414 104.352 149.516 104.301 149.625 104.301C149.758 104.301 149.871 104.359 149.965 104.477C150.066 104.594 150.117 104.746 150.117 104.934C150.117 105.113 150.078 105.293 150 105.473C149.93 105.645 149.797 105.836 149.602 106.047C148.914 106.453 148.203 106.812 147.469 107.125C146.734 107.43 145.973 107.582 145.184 107.582C144.668 107.582 144.254 107.438 143.941 107.148C143.277 107.945 142.57 108.531 141.82 108.906C141.078 109.273 140.273 109.457 139.406 109.457ZM140.273 107.242C140.883 107.242 141.461 107.059 142.008 106.691C142.555 106.316 142.996 105.848 143.332 105.285C143.676 104.715 143.848 104.137 143.848 103.551C143.848 103.316 143.797 103.07 143.695 102.812C143.594 102.555 143.348 102.426 142.957 102.426C142.363 102.426 141.777 102.613 141.199 102.988C140.621 103.355 140.145 103.824 139.77 104.395C139.395 104.957 139.207 105.535 139.207 106.129C139.207 106.395 139.27 106.648 139.395 106.891C139.527 107.125 139.82 107.242 140.273 107.242ZM149.754 109.293C149.129 109.293 148.594 109.141 148.148 108.836C147.711 108.523 147.375 108.117 147.141 107.617C146.914 107.109 146.801 106.566 146.801 105.988C146.801 105.48 146.945 104.914 147.234 104.289C147.531 103.656 147.953 103.051 148.5 102.473C149.047 101.895 149.699 101.418 150.457 101.043C151.223 100.66 152.055 100.469 152.953 100.469C153.602 100.469 154.086 100.625 154.406 100.938C154.727 101.25 154.887 101.684 154.887 102.238C154.887 102.566 154.801 102.91 154.629 103.27C154.457 103.629 154.16 103.992 153.738 104.359C153.316 104.734 152.75 105.117 152.039 105.508C151.336 105.891 150.453 106.277 149.391 106.668C149.477 107.152 149.867 107.395 150.562 107.395C151.102 107.395 151.684 107.285 152.309 107.066C152.934 106.84 153.535 106.582 154.113 106.293C154.691 106.012 155.188 105.746 155.602 105.496C156.016 105.246 156.262 105.105 156.34 105.074C156.41 105.027 156.473 105 156.527 104.992C156.59 104.984 156.645 104.98 156.691 104.98C156.879 104.98 157.008 105.055 157.078 105.203C157.156 105.344 157.195 105.461 157.195 105.555C157.195 105.625 157.188 105.711 157.172 105.812C157.156 105.906 157.098 106.016 156.996 106.141C156.895 106.242 156.598 106.465 156.105 106.809C155.613 107.152 155.086 107.484 154.523 107.805C153.836 108.188 153.07 108.531 152.227 108.836C151.383 109.141 150.559 109.293 149.754 109.293ZM149.215 105.32C149.723 105.055 150.238 104.746 150.762 104.395C151.293 104.035 151.695 103.773 151.969 103.609C152.336 103.375 152.578 103.168 152.695 102.988C152.828 102.793 152.895 102.629 152.895 102.496C152.895 102.379 152.855 102.285 152.777 102.215C152.707 102.145 152.625 102.102 152.531 102.086L152.426 102.074H152.32C151.891 102.074 151.492 102.199 151.125 102.449C150.766 102.691 150.461 102.996 150.211 103.363C149.945 103.746 149.73 104.105 149.566 104.441C149.41 104.777 149.293 105.07 149.215 105.32ZM158.004 109.293C157.379 109.293 156.844 109.141 156.398 108.836C155.961 108.523 155.625 108.117 155.391 107.617C155.164 107.109 155.051 106.566 155.051 105.988C155.051 105.48 155.195 104.914 155.484 104.289C155.781 103.656 156.203 103.051 156.75 102.473C157.297 101.895 157.949 101.418 158.707 101.043C159.473 100.66 160.305 100.469 161.203 100.469C161.852 100.469 162.336 100.625 162.656 100.938C162.977 101.25 163.137 101.684 163.137 102.238C163.137 102.566 163.051 102.91 162.879 103.27C162.707 103.629 162.41 103.992 161.988 104.359C161.566 104.734 161 105.117 160.289 105.508C159.586 105.891 158.703 106.277 157.641 106.668C157.727 107.152 158.117 107.395 158.812 107.395C159.352 107.395 159.934 107.285 160.559 107.066C161.184 106.84 161.785 106.582 162.363 106.293C162.941 106.012 163.438 105.746 163.852 105.496C164.266 105.246 164.512 105.105 164.59 105.074C164.66 105.027 164.723 105 164.777 104.992C164.84 104.984 164.895 104.98 164.941 104.98C165.129 104.98 165.258 105.055 165.328 105.203C165.406 105.344 165.445 105.461 165.445 105.555C165.445 105.625 165.438 105.711 165.422 105.812C165.406 105.906 165.348 106.016 165.246 106.141C165.145 106.242 164.848 106.465 164.355 106.809C163.863 107.152 163.336 107.484 162.773 107.805C162.086 108.188 161.32 108.531 160.477 108.836C159.633 109.141 158.809 109.293 158.004 109.293ZM157.465 105.32C157.973 105.055 158.488 104.746 159.012 104.395C159.543 104.035 159.945 103.773 160.219 103.609C160.586 103.375 160.828 103.168 160.945 102.988C161.078 102.793 161.145 102.629 161.145 102.496C161.145 102.379 161.105 102.285 161.027 102.215C160.957 102.145 160.875 102.102 160.781 102.086L160.676 102.074H160.57C160.141 102.074 159.742 102.199 159.375 102.449C159.016 102.691 158.711 102.996 158.461 103.363C158.195 103.746 157.98 104.105 157.816 104.441C157.66 104.777 157.543 105.07 157.465 105.32Z" fill="#9F740A"/>
<path d="M118.976 11.158L121.945 14.1264M128.64 14.1264L131.608 11.158M120.555 19.0528V17.4739C120.555 16.2175 121.054 15.0127 121.943 14.1243C122.831 13.236 124.036 12.7369 125.292 12.7369C126.549 12.7369 127.753 13.236 128.642 14.1243C129.53 15.0127 130.029 16.2175 130.029 17.4739V19.0528M118.282 26.9477H132.287M118.187 34.8426H132.398M114.239 19.0528C113.463 19.0679 112.701 19.2738 112.023 19.6525C111.344 20.0312 110.769 20.571 110.349 21.2244C109.928 21.8777 109.674 22.6245 109.61 23.3989C109.546 24.1733 109.674 24.9516 109.982 25.6651C110.29 26.3786 110.768 27.0055 111.375 27.4903C111.983 27.9752 112.7 28.3033 113.464 28.4456C114.228 28.588 115.015 28.5402 115.756 28.3065C116.497 28.0728 117.169 27.6604 117.713 27.1056C120.713 23.7898 125.292 19.0528 125.292 19.0528C125.292 19.0528 129.871 23.7898 132.871 27.1056C133.415 27.6604 134.088 28.0728 134.829 28.3065C135.57 28.5402 136.357 28.588 137.121 28.4456C137.885 28.3033 138.602 27.9752 139.209 27.4903C139.816 27.0055 140.295 26.3786 140.603 25.6651C140.911 24.9516 141.038 24.1733 140.974 23.3989C140.91 22.6245 140.657 21.8777 140.236 21.2244C139.815 20.571 139.24 20.0312 138.562 19.6525C137.883 19.2738 137.122 19.0679 136.345 19.0528H114.239Z" stroke="#DF8B15" stroke-width="2" stroke-linecap="round" stroke-linejoin="round"/>
<path d="M130.819 24.895C132.24 26.3161 133.029 28.2109 133.187 30.1056C133.187 39.2637 125.292 42.7374 125.292 42.7374C125.292 42.7374 117.397 39.2637 117.397 30.1056C117.555 28.2109 118.345 26.3161 119.766 24.895" stroke="#D38210" stroke-width="2" stroke-linecap="round" stroke-linejoin="round"/>
<path d="M7.3629 66.3071C7.5325 66.0892 7.49334 65.775 7.27542 65.6054C7.0575 65.4358 6.74335 65.475 6.57375 65.6929L6.96832 66L7.3629 66.3071ZM129.292 46L131.476 51.3443L135.013 46.7803L129.292 46ZM6.96832 66C6.57375 65.6929 6.57341 65.6933 6.57295 65.6939C6.57261 65.6944 6.572 65.6951 6.57133 65.696C6.56999 65.6978 6.5681 65.7002 6.56569 65.7033C6.56088 65.7096 6.55395 65.7186 6.54501 65.7303C6.52713 65.7538 6.50116 65.7882 6.4678 65.833C6.40108 65.9226 6.30476 66.0542 6.18433 66.2244C5.9435 66.5647 5.60598 67.0599 5.21575 67.6842C4.43592 68.9317 3.44239 70.6994 2.58984 72.7791C0.89184 76.9211 -0.28493 82.3963 2.03865 87.4586C4.37121 92.5404 10.1501 97.0375 21.9745 99.3966C33.8 101.756 51.7635 101.999 78.637 98.4958L78.5724 98L78.5078 97.5042C51.6782 101.001 33.8397 100.744 22.1701 98.4159C10.4994 96.0875 5.09019 91.7096 2.94749 87.0414C0.795812 82.3537 1.85667 77.2039 3.51511 73.1584C4.34077 71.1443 5.30518 69.4277 6.06371 68.2143C6.44267 67.608 6.76944 67.1287 7.00061 66.802C7.11618 66.6387 7.20778 66.5136 7.26999 66.4301C7.30109 66.3883 7.32484 66.3569 7.34055 66.3362C7.34841 66.3259 7.35426 66.3183 7.35801 66.3134C7.35989 66.311 7.36124 66.3092 7.36206 66.3082C7.36247 66.3077 7.36268 66.3074 7.36288 66.3071C7.36296 66.307 7.3629 66.3071 6.96832 66ZM78.5724 98L78.637 98.4958C101.138 95.5629 116.482 91.5735 126.672 87.082C136.855 82.5935 141.962 77.5707 143.855 72.5273C145.753 67.4702 144.368 62.5307 141.895 58.3379C139.424 54.1467 135.829 50.6363 133.172 48.3745L132.848 48.7553L132.524 49.136C135.144 51.3664 138.644 54.7927 141.034 58.8458C143.423 62.8974 144.67 67.51 142.919 72.176C141.162 76.8558 136.341 81.727 126.269 86.1669C116.203 90.6037 100.965 94.577 78.5078 97.5042L78.5724 98Z" fill="#B87210"/>
</svg>
